<?xml version="1.0" standalone="no"?>
<!DOCTYPE svg PUBLIC "-//W3C//DTD SVG 20010904//EN"
 "http://www.w3.org/TR/2001/REC-SVG-20010904/DTD/svg10.dtd">
<svg version="1.0" xmlns="http://www.w3.org/2000/svg"
 width="512.000000pt" height="512.000000pt" viewBox="0 0 512.000000 512.000000"
 preserveAspectRatio="xMidYMid meet">

<g transform="translate(0.000000,512.000000) scale(0.100000,-0.100000)"
fill="#000000" stroke="none">
<path d="M650 4220 c-134 -14 -235 -69 -310 -169 -56 -74 -75 -138 -74 -246 1
-118 26 -184 100 -265 63 -68 115 -100 199 -127 57 -17 143 -18 2025 -18 1882
0 1968 1 2025 18 84 27 136 59 199 127 74 81 99 147 100 265 1 108 -18 172
-74 246 -51 69 -128 124 -208 151 l-67 23 -1925 1 c-1059 1 -1954 -2 -1990 -6z
m3962 -87 c60 -27 127 -94 158 -158 20 -41 25 -65 25 -135 0 -79 -3 -90 -36
-150 -23 -43 -52 -78 -84 -102 -98 -74 76 -69 -2135 -66 l-1985 3 -50 24
c-258 127 -240 500 28 593 49 17 152 17 2042 15 l1990 -2 47 -22z"/>
<path d="M650 2940 c-134 -14 -235 -69 -310 -169 -56 -74 -75 -138 -74 -246 1
-118 26 -184 100 -265 63 -68 115 -100 199 -127 57 -17 143 -18 2025 -18 1882
0 1968 1 2025 18 84 27 136 59 199 127 74 81 99 147 100 265 1 108 -18 172
-74 246 -51 69 -128 124 -208 151 l-67 23 -1925 1 c-1059 1 -1954 -2 -1990 -6z
m3962 -87 c60 -27 127 -94 158 -158 20 -41 25 -65 25 -135 0 -79 -3 -90 -36
-150 -23 -43 -52 -78 -84 -102 -98 -74 76 -69 -2135 -66 l-1985 3 -50 24
c-258 127 -240 500 28 593 49 17 152 17 2042 15 l1990 -2 47 -22z"/>
<path d="M650 1660 c-134 -14 -235 -69 -310 -169 -56 -74 -75 -138 -74 -246 1
-118 26 -184 100 -265 63 -68 115 -100 199 -127 57 -17 143 -18 2025 -18 1882
0 1968 1 2025 18 84 27 136 59 199 127 74 81 99 147 100 265 1 108 -18 172
-74 246 -51 69 -128 124 -208 151 l-67 23 -1925 1 c-1059 1 -1954 -2 -1990 -6z
m3962 -87 c60 -27 127 -94 158 -158 20 -41 25 -65 25 -135 0 -79 -3 -90 -36
-150 -23 -43 -52 -78 -84 -102 -98 -74 76 -69 -2135 -66 l-1985 3 -50 24
c-258 127 -240 500 28 593 49 17 152 17 2042 15 l1990 -2 47 -22z"/>
</g>
</svg>
